# xmcd
#
# Track frame offsets: 
#        150
#        2874
#        11250
#        25274
#        36834
#        41700
#        52907
#        67776
#        84425
#
# Disc length: 1359 seconds
#
# Revision: 0
# Processed by: cddbd v1.5.2PL0 Copyright (c) Steve Scherf et al.
# Submitted via: ExactAudioCopy v0.99pb4
#
DISCID=5e054d09
DTITLE=J-Green - Isaiah 45:7
DYEAR=2011
DGENRE=Gangsta Rap
TTITLE0=Intro To Isaiah 45:7
TTITLE1=Isaiah 45:7
TTITLE2=Dem Niggas Drop
TTITLE3=Pimpology
TTITLE4=Skit
TTITLE5=Narcs
TTITLE6=Let That Steam Out Yo Collar
TTITLE7=Dem Niggas Drop (Screwed)
TTITLE8=Let That Steam Out Yo Collar (Screwed)
EXTD=
EXTT0=
EXTT1=
EXTT2=
EXTT3=
EXTT4=
EXTT5=
EXTT6=
EXTT7=
EXTT8=
PLAYORDER=
